<?xml version="1.0" standalone="no"?>
<svg viewBox="0 0 200 200" xmlns="http://www.w3.org/2000/svg">
  <path fill="#33A8C7" d="M41.2,-60.4C56.3,-54.3,73.5,-47.9,75.3,-36.6C77.2,-25.2,63.5,-9,58.5,6.6C53.5,22.3,57,37.4,51.7,46.3C46.3,55.3,32.1,58,17.7,64C3.3,69.9,-11.3,79,-24.7,77.9C-38,76.7,-50.1,65.3,-54.8,51.9C-59.4,38.5,-56.6,23.1,-54.8,10.2C-53.1,-2.8,-52.5,-13.2,-51.5,-26.9C-50.5,-40.5,-49.1,-57.3,-40.4,-66.4C-31.8,-75.5,-15.9,-76.8,-1.4,-74.6C13,-72.3,26,-66.6,41.2,-60.4Z" transform="translate(100 100)" />
</svg>
